<?xml version="1.0" encoding="utf-8"?>
<!-- Generator: Adobe Illustrator 27.0.1, SVG Export Plug-In . SVG Version: 6.00 Build 0)  -->
<svg version="1.1" id="Layer_1" xmlns="http://www.w3.org/2000/svg" xmlns:xlink="http://www.w3.org/1999/xlink" x="0px" y="0px"
	 viewBox="0 0 512 512" style="enable-background:new 0 0 512 512;" xml:space="preserve">
<style type="text/css">
	.st0{fill:#FFEDB5;}
	.st1{fill:#FFC61B;}
	.st2{fill:#D39807;}
	.st3{fill:#FEE187;}
	.st4{fill:#FF7F4F;}
	.st5{fill:#E25F37;}
</style>
<g>
	<polygon class="st0" points="148.8,369.5 123.6,369.8 123.6,308.6 169.6,302.5 	"/>
	<polygon class="st0" points="363.2,369.8 388.4,369.5 388.4,308.3 342.4,303.2 	"/>
</g>
<g>
	<path class="st1" d="M118.7,341.3h274.7c10.6,0,19.1-8.6,19.1-19.1v-104c0-10.6-8.6-19.1-19.1-19.1H118.7
		c-10.6,0-19.1,8.6-19.1,19.1v104C99.6,332.8,108.1,341.3,118.7,341.3z"/>
	<path class="st1" d="M118.7,199.1c-10.6,0-19.1,8.6-19.1,19.1v104c0,10.6,8.6,19.1,19.1,19.1H252V199.1L118.7,199.1L118.7,199.1z"
		/>
</g>
<path class="st2" d="M393.3,199.1H252v142.2h141.4c10.6,0,19.1-8.6,19.1-19.1v-104C412.4,207.7,403.9,199.1,393.3,199.1z"/>
<g>
	<path class="st3" d="M185,312.9H327c15.8,0,28.6-12.8,28.6-28.6V142.4c0-15.8-12.8-28.6-28.6-28.6H185c-15.8,0-28.6,12.8-28.6,28.6
		v141.9C156.4,300.1,169.2,312.9,185,312.9z"/>
	<path class="st3" d="M185,113.8c-15.8,0-28.6,12.8-28.6,28.6v141.9c0,15.8,12.8,28.6,28.6,28.6H252V113.8H185z"/>
</g>
<path class="st1" d="M327,113.8h-75v199.1h75c15.8,0,28.6-12.8,28.6-28.6V142.4C355.6,126.6,342.8,113.8,327,113.8z"/>
<g>
	<path class="st4" d="M148.5,312.9h214.9c8.7,0,15.8-7.1,15.8-15.8v-25.3c0-8.7-7.1-15.8-15.8-15.8H148.5c-8.7,0-15.8,7.1-15.8,15.8
		v25.3C132.7,305.8,139.8,312.9,148.5,312.9z"/>
	<path class="st4" d="M148.5,256c-8.7,0-15.8,7.1-15.8,15.8v25.3c0,8.7,7.1,15.8,15.8,15.8H252V256L148.5,256L148.5,256z"/>
</g>
<path class="st5" d="M363.5,256H252v56.9h111.5c8.7,0,15.8-7.1,15.8-15.8v-25.3C379.3,263.1,372.2,256,363.5,256z"/>
</svg>
