<?xml version="1.0" encoding="UTF-8"?><svg id="Layer_1" xmlns="http://www.w3.org/2000/svg" viewBox="0 0 256 312.89"><defs><style>.cls-1{fill:#273b7a;}.cls-2{fill:#b3f1f4;}.cls-3{fill:#38c6d9;}.cls-4{fill:#d3d3d3;}.cls-5{fill:#366695;}</style></defs><g><path class="cls-4" d="M158.17,69.39h97.83V16.23c0-8.97-7.27-16.23-16.23-16.23h-81.6V69.39Z"/><path class="cls-4" d="M0,72.84v223.82C0,305.62,7.27,312.89,16.23,312.89H239.77c8.97,0,16.23-7.27,16.23-16.23V72.83H0Z"/><path class="cls-4" d="M154.72,69.39V0H16.23C7.27,0,0,7.27,0,16.23v53.15H154.72Z"/></g><g><path class="cls-4" d="M158.17,69.39h97.83V16.23c0-8.97-7.27-16.23-16.23-16.23h-81.6V69.39Z"/><path class="cls-4" d="M128.29,72.84v240.05h111.48c8.97,0,16.23-7.27,16.23-16.23V72.83h-127.71Z"/><rect class="cls-4" x="128.29" width="26.43" height="69.39"/></g><circle class="cls-2" cx="128" cy="184.89" r="85.33"/><path class="cls-3" d="M213.33,184.89c0-47.03-38.05-85.17-85.04-85.33v170.65c46.99-.16,85.04-38.29,85.04-85.33Z"/><path class="cls-5" d="M128,277.98c-51.33,0-93.09-41.76-93.09-93.09s41.76-93.09,93.09-93.09,93.09,41.76,93.09,93.09-41.76,93.09-93.09,93.09Zm0-170.67c-42.77,0-77.58,34.8-77.58,77.58s34.8,77.58,77.58,77.58,77.58-34.8,77.58-77.58-34.8-77.58-77.58-77.58Z"/><path class="cls-1" d="M221.09,184.89c0-51.23-41.61-92.93-92.8-93.08v15.51c42.64,.16,77.29,34.89,77.29,77.57s-34.64,77.41-77.29,77.57v15.52c51.2-.16,92.8-41.85,92.8-93.08Z"/><g><circle class="cls-3" cx="28.44" cy="28.44" r="14.22"/><circle class="cls-3" cx="85.33" cy="28.44" r="14.22"/></g></svg>